<svg width="445" height="517" viewBox="0 0 445 517" fill="none" xmlns="http://www.w3.org/2000/svg">
<g clip-path="url(#clip0_151_181)">
<path d="M26.6262 446.33C26.6262 446.33 72.8983 479.656 86.6683 479.656L96.5041 475.725L107.807 476.393L110.435 484.409L127.978 487.518L122.077 493.414L141.749 498.328L153.551 490.466L157.486 495.38L171.256 490.466L174.55 498.328L190.927 492.432L201.747 496.363C201.747 496.363 203.714 508.155 213.55 509.138C223.385 510.121 237.155 517 237.155 517L267.857 503.878L271.58 497.345L282.4 500.294L310.923 484.57C310.923 484.57 310.29 484.657 302.738 481.665C295.186 478.673 294.203 474.743 294.203 474.743L288.848 476.393C288.848 476.393 280.416 474.058 286.326 464.081C292.236 454.105 287.587 455.492 287.587 455.492L278.466 458.036L273.548 450.174C273.548 450.174 263.712 453.122 261.745 454.105C259.778 455.088 264.695 449.191 264.695 449.191L260.761 447.226L261.745 442.312C261.745 442.312 258.794 440.347 262.728 436.416C266.663 432.485 259.778 428.554 259.778 428.554C259.778 428.554 241.776 434.346 248.318 424.571C254.86 414.796 249.153 410.868 249.153 410.868L205.498 397.107L200.763 403.986C200.763 403.986 185.187 399.768 190.024 412.687C190.024 412.687 179.301 413.567 183.147 419.587C183.147 419.587 170.272 417.964 173.223 425.716L162.802 422.822C162.802 422.822 154.843 420.447 161.082 419.587C167.321 418.727 158.79 416.27 158.79 416.27C158.79 416.27 161.581 405.46 153.632 408.654C145.683 411.848 138.965 416.27 138.965 416.27L26.6262 446.33Z" fill="#6A7282"/>
<path d="M29.5769 442.399C29.5769 442.399 75.8489 475.725 89.619 475.725L99.4547 471.794L110.757 472.462L113.386 480.479L130.929 483.587L125.028 489.484L144.699 494.397L156.502 486.535L160.436 491.449L174.206 486.535L177.501 494.397L193.878 488.501L204.697 492.432C204.697 492.432 206.664 504.225 216.5 505.207C226.336 506.19 240.106 513.069 240.106 513.069L270.808 499.948L274.531 493.414L285.35 496.363L313.874 480.639C313.874 480.639 313.241 480.726 305.689 477.734C298.137 474.743 297.153 470.812 297.153 470.812L291.799 472.462C291.799 472.462 283.367 470.127 289.276 460.151C295.186 450.174 290.538 451.561 290.538 451.561L281.416 454.105L276.498 446.243C276.498 446.243 266.663 449.192 264.695 450.174C262.728 451.157 267.646 445.261 267.646 445.261L263.712 443.295L264.695 438.381C264.695 438.381 261.745 436.416 265.679 432.485C269.613 428.554 262.728 424.623 262.728 424.623C262.728 424.623 244.726 430.415 251.268 420.64C257.81 410.865 252.103 406.937 252.103 406.937L208.449 393.176L203.714 400.055C203.714 400.055 188.138 395.837 192.975 408.756C192.975 408.756 182.252 409.637 186.098 415.656C186.098 415.656 173.223 414.033 176.174 421.785L165.752 418.891C165.752 418.891 157.794 416.516 164.033 415.656C170.272 414.796 161.74 412.339 161.74 412.339C161.74 412.339 164.531 401.529 156.582 404.723C148.634 407.917 141.915 412.339 141.915 412.339L29.5769 442.399Z" fill="#D1D5DC"/>
<path d="M360.102 331.264C360.102 331.264 397.478 322.419 393.544 286.058L400.429 288.023V274.315C400.429 274.315 414.119 296.868 414.159 305.713C414.199 314.557 420.1 378.435 349.283 366.642L360.102 331.264Z" fill="#F0B100"/>
<path d="M158.469 26.6166L149.125 27.108H134.254C134.254 27.108 123.634 24.6511 119.905 26.6166L125.028 29.5648C125.028 29.5648 116.175 30.5475 113.225 34.4785H121.456C121.456 34.4785 110.274 37.4267 108.307 45.2885C106.34 53.1504 86.6682 70.8396 86.6682 70.8396C86.6682 70.8396 46.3416 103.27 95.5204 147.493C95.5204 147.493 101.422 166.165 99.4546 169.113C97.4875 172.061 124.044 175.992 126.995 155.355C129.945 134.717 135.847 91.4769 135.847 86.5633C135.847 81.6496 148.633 51.1849 148.633 51.1849" fill="#F0B100"/>
<path d="M278.465 26.6166L287.809 27.108H302.681C302.681 27.108 313.3 24.6511 317.03 26.6166L311.907 29.5648C311.907 29.5648 320.759 30.5475 323.71 34.4785H315.478C315.478 34.4785 326.661 37.4267 328.628 45.2885C330.595 53.1504 350.266 70.8396 350.266 70.8396C350.266 70.8396 390.593 103.27 341.414 147.493C341.414 147.493 335.513 166.165 337.48 169.113C339.447 172.061 312.89 175.992 309.94 155.355C306.989 134.717 301.088 91.4769 301.088 86.5633C301.088 81.6496 288.301 51.1849 288.301 51.1849" fill="#F0B100"/>
<path d="M357.645 366.15C355.678 375.977 346.826 382.856 346.826 382.856C342.892 407.424 326.171 396.614 326.171 396.614C325.187 400.545 306.499 398.58 306.499 398.58L303.549 394.698V406.442C303.549 415.286 291.746 412.338 291.746 412.338C288.795 421.183 270.805 416.269 270.805 416.269C263.645 422.165 250.435 416.269 250.435 416.269C232.731 415.286 230.764 400.545 230.764 400.545L233.715 374.994L216.02 375.368C196.348 392.438 176.176 377.127 176.176 377.127C176.176 377.127 172.733 394.649 170.766 403.493C168.799 412.338 141.967 409.862 141.967 409.862C135.79 416.23 122.817 408.761 122.817 408.761C112.234 413.036 105.85 403.493 105.85 403.493C91.0963 389.735 118.272 367.899 118.272 367.899V316.934C107.089 271.64 123.062 188.098 123.062 188.098C124.38 184.226 126.8 181.366 129.544 179.273C135.967 174.33 144.17 173.534 144.17 173.534C144.17 173.534 277.976 161.741 297.647 163.707C301.365 164.08 304.346 166.517 306.726 170.232C316.984 186.182 316.335 225.619 316.335 225.619C336.007 234.464 340.924 277.704 340.924 277.704C386.169 293.427 359.612 356.322 357.645 366.15Z" fill="#F0B100"/>
<path d="M281.908 22.1944C281.908 22.1944 212.074 -30.8731 149.125 27.1081C149.125 27.1081 105.356 135.7 122.077 161.251C138.798 186.802 188.2 208.502 188.2 208.502C188.2 208.502 220.033 215.462 249.741 208.502C279.449 201.543 311.907 154.372 311.907 154.372C311.907 154.372 312.891 30.5476 281.908 22.1944Z" fill="#F0B100"/>
<path d="M239.725 62.3893C244.118 71.8274 252.8 79.0228 262.861 81.6812C264.699 82.1667 265.483 79.3237 263.646 78.8383C254.259 76.3583 246.363 69.6883 242.272 60.9013C241.472 59.1826 238.928 60.6781 239.725 62.3893Z" fill="#030712"/>
<path d="M187.505 62.047C185.498 67.192 182.28 71.8199 178.216 75.5542C176.228 77.3803 174.026 79.0159 171.65 80.3054C169.134 81.671 165.914 82.7908 163.208 81.3169C161.54 80.4086 160.049 82.9533 161.718 83.8626C167.818 87.1842 174.902 82.3277 179.441 78.4057C184.311 74.1985 188.017 68.8128 190.35 62.8307C191.04 61.062 188.188 60.2955 187.505 62.047Z" fill="#030712"/>
<path d="M263.712 124.89C273.49 124.89 281.416 116.97 281.416 107.201C281.416 97.4312 273.49 89.5115 263.712 89.5115C253.934 89.5115 246.007 97.4312 246.007 107.201C246.007 116.97 253.934 124.89 263.712 124.89Z" fill="white"/>
<path d="M261.745 119.976C269.35 119.976 275.515 113.816 275.515 106.218C275.515 98.6195 269.35 92.4597 261.745 92.4597C254.14 92.4597 247.975 98.6195 247.975 106.218C247.975 113.816 254.14 119.976 261.745 119.976Z" fill="#030712"/>
<path d="M265.187 101.796C266.817 101.796 268.138 100.476 268.138 98.8476C268.138 97.2194 266.817 95.8994 265.187 95.8994C263.557 95.8994 262.236 97.2194 262.236 98.8476C262.236 100.476 263.557 101.796 265.187 101.796Z" fill="white"/>
<path d="M176.174 125.873C185.951 125.873 193.878 117.953 193.878 108.184C193.878 98.4141 185.951 90.4944 176.174 90.4944C166.396 90.4944 158.469 98.4141 158.469 108.184C158.469 117.953 166.396 125.873 176.174 125.873Z" fill="white"/>
<path d="M174.206 120.959C181.811 120.959 187.976 114.799 187.976 107.201C187.976 99.6022 181.811 93.4424 174.206 93.4424C166.601 93.4424 160.436 99.6022 160.436 107.201C160.436 114.799 166.601 120.959 174.206 120.959Z" fill="#030712"/>
<path d="M177.649 102.778C179.279 102.778 180.6 101.459 180.6 99.8303C180.6 98.202 179.279 96.8821 177.649 96.8821C176.019 96.8821 174.698 98.202 174.698 99.8303C174.698 101.459 176.019 102.778 177.649 102.778Z" fill="white"/>
<path d="M216.008 173.535C216.008 173.535 184.534 163.708 192.403 145.036C200.271 126.364 224.861 133.243 224.861 133.243C224.861 133.243 246.007 136.683 239.725 152.77C235.188 164.199 227.811 169.604 216.008 173.535Z" fill="#030712"/>
<path d="M176.285 203.636L176.061 201.684C176.156 201.672 185.658 200.465 194.131 191.059C201.786 182.561 211.789 181.705 215.032 181.664L215.025 173.537L216.992 173.535L217.001 183.707L215.956 183.643C215.836 183.636 204.005 183.036 195.593 192.374C186.594 202.363 176.701 203.589 176.285 203.636Z" fill="#030712"/>
<path d="M261.453 204.683C260.738 204.461 243.896 199.155 240.017 191.588C237.162 186.022 221.684 183.966 215.96 183.643L216.072 181.681C216.957 181.731 237.819 182.993 241.767 190.692C245.275 197.532 261.87 202.754 262.037 202.806L261.453 204.683Z" fill="#030712"/>
<path d="M177.059 377.551L175.288 376.695C194.5 337.022 175.503 301.063 175.309 300.705L177.038 299.769C177.238 300.136 196.723 336.946 177.059 377.551Z" fill="#030712"/>
<path d="M232.731 375.053C231.264 350.145 241.015 305.943 241.113 305.5L243.034 305.926C242.936 306.368 233.244 350.304 234.694 374.938L232.731 375.053Z" fill="#030712"/>
<path d="M302.201 395.629L294.332 381.871C286.311 367.845 306.22 322.005 307.072 320.061L308.874 320.848C308.823 320.966 303.679 332.758 299.563 346.066C294.181 363.471 292.963 375.515 296.04 380.896L303.909 394.654L302.201 395.629Z" fill="#030712"/>
<path d="M327.133 396.809L325.205 396.423C327.595 384.478 326.137 375.246 326.122 375.155L328.063 374.836C328.127 375.225 329.599 384.491 327.133 396.809Z" fill="#030712"/>
<path d="M305.546 398.832C303.048 389.348 306.861 375.327 307.025 374.735L308.921 375.257C308.882 375.397 305.086 389.363 307.448 398.331L305.546 398.832Z" fill="#030712"/>
<path d="M251.39 416.498L249.477 416.043C251.872 405.988 250.937 390.445 250.927 390.289L252.891 390.167C252.931 390.814 253.855 406.155 251.39 416.498Z" fill="#030712"/>
<path d="M271.775 416.451L269.841 416.09C271.003 409.877 270.602 393.367 270.597 393.201L272.564 393.151C272.581 393.837 272.975 410.035 271.775 416.451Z" fill="#030712"/>
<path d="M292.725 412.397L290.762 412.282C291.237 404.211 288.372 395.54 288.344 395.453L290.209 394.83C290.333 395.198 293.223 403.952 292.725 412.397Z" fill="#030712"/>
<path d="M140.989 409.944C140.208 400.885 147.817 386.906 148.141 386.315L149.866 387.261C149.789 387.401 142.218 401.31 142.948 409.775L140.989 409.944Z" fill="#030712"/>
<path d="M121.841 408.905C120.574 400.667 128.034 386.9 128.352 386.317L130.079 387.26C130.004 387.396 122.62 401.025 123.785 408.607L121.841 408.905Z" fill="#030712"/>
<path d="M108.797 407.819C106.574 406.727 106.599 402.916 108.875 395.827C110.411 391.039 112.468 386.432 112.488 386.387L114.284 387.189C110.614 395.383 107.814 405.145 109.665 406.055L108.797 407.819Z" fill="#030712"/>
<path d="M36.5159 405.706C36.5159 405.706 45.4093 414.796 59.1537 414.304C59.1537 414.304 53.2267 426.589 28.6373 429.537C28.6373 429.537 17.818 423.64 10.9329 423.64C4.0479 423.64 -0.850332 414.796 0.123419 414.304C1.09717 413.813 14.8672 415.779 14.8672 415.779L36.5159 405.706Z" fill="#6A7282"/>
<path d="M36.5159 403.74C36.5159 403.74 45.4093 412.831 59.1537 412.339C59.1537 412.339 53.2267 424.623 28.6373 427.571C28.6373 427.571 17.818 421.675 10.9329 421.675C4.0479 421.675 -0.850332 412.831 0.123419 412.339C1.09717 411.848 14.8672 413.813 14.8672 413.813L36.5159 403.74Z" fill="#D1D5DC"/>
<path d="M86.6682 438.381L145.459 418.891L209.615 441.33L150.601 465.898L86.6682 438.381Z" fill="#6A7282"/>
<path d="M199.709 415.656L203.148 412.339L246.991 427.571L245.024 430.52L199.709 415.656Z" fill="#6A7282"/>
<path d="M180.545 421.429L184.916 418.891L257.593 442.394V444.976L180.545 421.429Z" fill="#6A7282"/>
<path d="M214.533 447.226L217.762 444.976L275.515 463.932L271.653 467.022L214.533 447.226Z" fill="#6A7282"/>
<path d="M197.703 455.999L199.709 453.123L257.593 473.607L254.86 476.708L197.703 455.999Z" fill="#6A7282"/>
<path d="M184.042 461.967L184.917 459.292L242.073 480.479L239.122 481.622L184.042 461.967Z" fill="#6A7282"/>
<path d="M176.174 469.312L180.545 465.898L209.615 478.761L208.019 481.622L176.174 469.312Z" fill="#6A7282"/>
<path d="M75.8489 446.243L78.4962 444.976L130.649 464.915L127.784 465.898L75.8489 446.243Z" fill="#6A7282"/>
<path d="M64.0459 449.192L69.9474 446.243L98.471 460.984L95.5203 462.95L64.0459 449.192Z" fill="#6A7282"/>
<path d="M296.349 420.201L298.137 432.485L294.75 440.891L303.636 444.899L310.923 454.633V459.93L329.12 464.368C329.12 464.368 339.447 478.674 346.332 476.708C353.217 474.743 407.26 435.864 407.26 435.864L307.252 416.27C307.252 416.27 295.545 413.813 296.349 420.201Z" fill="#6A7282"/>
<path d="M293.398 416.27L295.186 428.554L291.799 436.959L300.686 440.968L307.973 450.702V455.999L326.169 460.437C326.169 460.437 336.496 474.742 343.381 472.777C350.266 470.811 404.309 431.933 404.309 431.933L304.301 412.339C304.301 412.339 292.594 409.882 293.398 416.27Z" fill="#D1D5DC"/>
<path d="M302.296 431.933L305.689 428.37L353.302 442.394L351.583 444.976L302.296 431.933Z" fill="#6A7282"/>
<path d="M313.874 446.694L315.191 442.418L338.464 451.157L337.255 455.437L313.874 446.694Z" fill="#6A7282"/>
<path d="M412.327 387.064C412.327 387.064 402.242 401.038 386.582 394.159C386.582 394.159 380.866 398.09 378.845 399.072C376.823 400.055 363.657 400.546 363.657 400.546L382.283 407.18L393.544 413.813L420.1 409.882C420.1 409.882 426.002 404.969 431.903 404.969C437.805 404.969 443.033 394.159 443.033 394.159C443.033 394.159 426.088 393.176 425.553 390.719C425.018 388.262 417.34 393.729 412.327 387.064Z" fill="#6A7282"/>
<path d="M410.079 474.387C411.248 480.639 436.442 468.805 436.442 468.805L425.84 463.222L421.084 461.967H414.091C414.091 461.967 408.19 456.91 402.342 459.93C402.342 459.93 408.91 468.136 410.079 474.387Z" fill="#6A7282"/>
<path d="M414.294 383.133C414.294 383.133 404.209 397.107 388.549 390.227C388.549 390.227 382.833 394.158 380.812 395.141C378.79 396.124 365.624 396.615 365.624 396.615L384.25 403.249L395.511 409.882L422.067 405.951C422.067 405.951 427.969 401.038 433.87 401.038C439.772 401.038 445 390.228 445 390.228C445 390.228 428.055 389.245 427.52 386.788C426.985 384.331 419.307 389.797 414.294 383.133Z" fill="#D1D5DC"/>
<path d="M412.046 470.457C413.215 476.708 438.409 464.874 438.409 464.874L427.807 459.292L423.051 458.036H416.058C416.058 458.036 410.157 452.979 404.309 455.999C404.309 455.999 410.877 464.205 412.046 470.457Z" fill="#D1D5DC"/>
<path d="M89.2866 438.98C89.2866 438.98 133.625 434.089 141.701 437.271L144.534 462.758L89.2866 438.98Z" fill="white"/>
<path d="M162.563 443.402C166.909 443.402 170.432 441.862 170.432 439.963C170.432 438.063 166.909 436.523 162.563 436.523C158.217 436.523 154.694 438.063 154.694 439.963C154.694 441.862 158.217 443.402 162.563 443.402Z" fill="white"/>
</g>
<defs>
<clipPath id="clip0_151_181">
<rect width="445" height="517" fill="white"/>
</clipPath>
</defs>
</svg>
